<svg xmlns="http://www.w3.org/2000/svg" xml:space="preserve" width="800" height="800" viewBox="0 0 64 64"><path fill="#231f20" d="M35.5 19.5a3.5 3.5 0 1 0-7 0 3.49 3.49 0 0 0 2.5 3.337V25.5a1 1 0 1 0 2 0v-2.663a3.49 3.49 0 0 0 2.5-3.337M32 21a1.503 1.503 0 0 1-1.5-1.5A1.503 1.503 0 0 1 32 18a1.503 1.503 0 0 1 1.5 1.5A1.503 1.503 0 0 1 32 21"/><path fill="#231f20" d="M55.498 48.922C55.455 35.979 44.952 25.501 32 25.5c-12.952.001-23.455 10.479-23.498 23.422zM16.981 35.609a14.7 14.7 0 0 1 6.702-4.558 1 1 0 1 1 .633 1.897 12.7 12.7 0 0 0-5.688 3.811c-1.166 1.36-1.668 2.533-1.7 2.611v.001a1 1 0 0 1-1.858-.742c.03-.069.572-1.409 1.911-3.02M5.508 50.922l5.664 5.664c.72.715 1.679 1.287 2.703 1.715 1.027.422 2.11.695 3.125.699h30c1.015-.004 2.098-.277 3.125-.699 1.024-.428 1.983-1 2.703-1.715l5.664-5.664z"/></svg>