<svg xmlns:mydata="http://www.w3.org/2000/svg" mydata:contrastcolor="ffffff" mydata:template="SingleColorHex1"
  mydata:presentation="2.5" mydata:layouttype="undefined" mydata:specialfontid="undefined" mydata:id1="014"
  mydata:id2="1011" mydata:companyname="Hags Can Cook" mydata:companytagline="Let's cook!" version="1.1"
  xmlns="http://www.w3.org/2000/svg" xmlns:xlink="http://www.w3.org/1999/xlink" viewBox="0 0 550 470">
  <g fill="#714b41" fill-rule="none" stroke="none" stroke-width="1" stroke-linecap="butt" stroke-linejoin="miter"
    stroke-miterlimit="10" stroke-dasharray="" stroke-dashoffset="0" font-family="none" font-weight="none"
    font-size="none" text-anchor="none" style="mix-blend-mode: normal">
    <g
      data-paper-data="{&quot;isGlobalGroup&quot;:true,&quot;bounds&quot;:{&quot;x&quot;:64.99999999999997,&quot;y&quot;:187.8199342587813,&quot;width&quot;:420,&quot;height&quot;:94.3601314824374}}">
      <g data-paper-data="{&quot;isSecondaryText&quot;:true}" fill-rule="nonzero">
        <path
          d="M170.96199,266.36448c-0.04791,-0.02395 -0.07186,-0.04791 -0.11977,-0.09582c0.19164,-0.527 0.31141,-1.07796 0.527,-1.60496c2.25174,-5.3419 4.93467,-10.44424 8.12064,-15.28309c0.31141,-0.47909 0.62282,-0.98214 0.91028,-1.48519c0.07186,-0.11977 0.09582,-0.35932 0.02395,-0.45514c-0.31141,-0.40723 -0.81446,-0.40723 -1.2696,-0.38327c-0.40723,0.02395 -0.81446,0.07186 -1.05401,0.45514c-0.31141,0.47909 -0.57491,1.0061 -0.88632,1.50915c-2.92247,4.38371 -5.3898,9.03092 -7.52177,13.84581c-0.45514,0.98214 -0.81446,1.98824 -1.12587,3.01829c-0.23955,0.81446 0.11977,1.36542 0.95819,1.58101c0.14373,0.04791 0.31141,0.04791 0.45514,0.07186c1.19773,0.14373 2.2757,-0.19164 3.35366,-0.64678c1.12587,-0.45514 2.25174,-0.88632 3.37761,-1.34146c0.07186,-0.02395 0.16768,-0.07186 0.23955,-0.14373c0.23955,-0.16768 0.2635,-0.40723 0,-0.55096c-0.2635,-0.11977 -0.55096,-0.21559 -0.81446,-0.2635c-0.83841,-0.09582 -1.58101,0.19164 -2.29965,0.527c-0.95819,0.40723 -1.91637,0.83841 -2.87456,1.24564z"
          data-paper-data="{&quot;glyphName&quot;:&quot;L&quot;,&quot;glyphIndex&quot;:0,&quot;firstGlyphOfWord&quot;:true,&quot;word&quot;:1}">
        </path>
        <path
          d="M180.4241,263.32223c-0.28746,-1.46124 -0.04791,-2.73083 0.38327,-3.97648c0.04791,-0.14373 0.2635,-0.2635 0.43118,-0.31141c1.70078,-0.57491 3.0662,-1.62892 4.26393,-2.94643c0.2635,-0.31141 0.45514,-0.71864 0.57491,-1.10192c0.19164,-0.57491 0.02395,-1.12587 -0.50305,-1.38937c-0.62282,-0.33537 -1.31751,-0.57491 -1.98824,-0.81446c-0.19164,-0.07186 -0.40723,-0.02395 -0.62282,0c-0.71864,0.07186 -1.2696,0.47909 -1.70078,1.03005c-1.60496,1.98824 -2.68292,4.23998 -3.23388,6.75522c-0.21559,0.95819 -0.2635,1.94033 0,2.89852c0.19164,0.7905 0.7426,1.22169 1.5331,1.31751c1.41333,0.19164 2.5392,-0.33537 3.42552,-1.36542c0.7905,-0.91028 1.50915,-1.89242 2.22779,-2.87456c0.67073,-0.93423 0.21559,-1.19773 -0.62282,-1.34146c-0.21559,-0.02395 -0.43118,-0.02395 -0.64678,0.02395c-0.40723,0.07186 -0.69469,0.2635 -0.93423,0.69469c-0.62282,1.22169 -1.50915,2.2757 -2.58711,3.40157zM183.63402,254.38714c0.07186,0.86237 -0.45514,1.62892 -1.60496,2.37151c0.09582,-0.71864 1.03005,-2.13197 1.60496,-2.37151z"
          data-paper-data="{&quot;glyphName&quot;:&quot;e&quot;,&quot;glyphIndex&quot;:1,&quot;word&quot;:1}"></path>
        <path
          d="M203.73201,248.97338c-0.527,-0.16768 -1.10192,-0.2635 -1.65287,-0.28746c-1.43728,-0.07186 -2.87456,0.09582 -4.31184,0.31141c-0.95819,0.16768 -1.89242,0.31141 -2.85061,0.47909c0.40723,-0.62282 0.81446,-1.22169 1.38937,-1.70078c0.40723,-0.35932 0.28746,-0.81446 -0.2635,-0.93423c-0.91028,-0.21559 -1.72474,-0.16768 -2.25174,0.64678c-0.527,0.81446 -1.07796,1.60496 -1.60496,2.41942c-0.7426,0.11977 -1.48519,0.23955 -2.22779,0.33537c-1.55705,0.2635 -3.13806,0.47909 -4.69512,0.71864c0,-0.02395 0,-0.04791 0,-0.07186c-0.2635,0 -0.527,0 -0.7905,0c-0.50305,-0.02395 -0.69469,-0.23955 -0.62282,-0.76655c0.02395,-0.09582 0.04791,-0.21559 0.09582,-0.33537c0.11977,-0.28746 0,-0.50305 -0.28746,-0.59887c-0.57491,-0.23955 -1.14982,-0.23955 -1.70078,0.02395c-0.19164,0.09582 -0.35932,0.31141 -0.43118,0.50305c-0.33537,0.83841 0,1.67683 0.88632,1.98824c0.59887,0.21559 1.2696,0.35932 1.91637,0.33537c1.19773,0 2.41942,-0.09582 3.61716,-0.2635c1.12587,-0.16768 2.25174,-0.35932 3.35366,-0.55096c-0.16768,0.31141 -0.35932,0.59887 -0.527,0.88632c-2.58711,4.47953 -4.55139,9.22255 -5.98867,14.18117c-0.16768,0.59887 -0.28746,1.22169 -0.33537,1.84451c-0.07186,0.7426 -0.02395,1.5331 0.64678,1.96428c1.07796,0.69469 2.2757,0.7905 3.49738,0.38327c0.23955,-0.07186 0.527,-0.23955 0.43118,-0.527c-0.04791,-0.19164 -0.28746,-0.38327 -0.47909,-0.43118c-0.45514,-0.07186 -0.91028,-0.07186 -1.46124,-0.11977c-0.04791,-0.16768 -0.14373,-0.40723 -0.16768,-0.64678c-0.07186,-0.7426 0.04791,-1.48519 0.23955,-2.22779c1.65287,-5.55749 3.88066,-10.82752 6.94686,-15.76218c1.19773,-0.19164 2.41942,-0.40723 3.64111,-0.59887c1.19773,-0.16768 2.39547,-0.31141 3.5932,-0.43118c0.71864,-0.07186 0.95819,0.14373 1.12587,0.83841c0.04791,0.19164 0.04791,0.38327 0.11977,0.55096c0.07186,0.16768 0.19164,0.40723 0.33537,0.45514c0.57491,0.2635 1.14982,0.23955 1.70078,-0.02395c0.16768,-0.07186 0.33537,-0.28746 0.35932,-0.45514c0.11977,-0.83841 -0.45514,-1.86847 -1.24564,-2.13197z"
          data-paper-data="{&quot;glyphName&quot;:&quot;t&quot;,&quot;glyphIndex&quot;:2,&quot;word&quot;:1}"></path>
        <path
          d="M197.45588,250.09925c0.83841,0 1.14982,-0.11977 1.55705,-0.7905c0.527,-0.86237 1.05401,-1.74869 1.5331,-2.65897c0.45514,-0.88632 0.21559,-1.2696 -0.7905,-1.34146c-0.09582,0 -0.19164,0 -0.28746,0c-0.76655,0.02395 -0.93423,0.14373 -1.19773,0.88632c-0.02395,0.11977 -0.09582,0.23955 -0.16768,0.35932c-0.47909,0.86237 -0.98214,1.70078 -1.48519,2.5392c-0.38327,0.59887 -0.28746,0.83841 0.40723,0.98214c0.14373,0.02395 0.31141,0.02395 0.43118,0.02395z"
          data-paper-data="{&quot;glyphName&quot;:&quot;'&quot;,&quot;glyphIndex&quot;:3,&quot;word&quot;:1}"></path>
        <path
          d="M209.09786,253.06963c0,0.02395 0,0.04791 -0.02395,0.07186c-0.16768,0.02395 -0.35932,0 -0.55096,0.02395c-0.19164,0.02395 -0.38327,0.07186 -0.55096,0.11977c-1.58101,0.57491 -2.77874,1.60496 -3.5932,3.0662c-0.28746,0.50305 -0.33537,1.07796 -0.07186,1.62892c0.19164,0.40723 0.47909,0.7905 0.76655,1.14982c0.19164,0.2635 0.47909,0.50305 0.71864,0.7426c0.57491,0.59887 0.67073,1.29355 0.31141,2.01219c-0.23955,0.47909 -0.55096,0.98214 -0.91028,1.41333c-0.76655,0.88632 -1.60496,1.74869 -2.44338,2.61106c-0.43118,0.45514 -0.86237,0.91028 -1.65287,0.7905c-0.7426,-0.09582 -1.14982,0.55096 -1.58101,1.03005c-0.19164,0.21559 -0.47909,0.43118 -0.35932,0.7905c0.11977,0.33537 0.50305,0.35932 0.81446,0.45514c0.09582,0.02395 0.19164,0 0.28746,0.02395c0.64678,0.04791 1.22169,-0.19164 1.7966,-0.47909c1.67683,-0.83841 3.01829,-2.13197 4.26393,-3.47343c0.67073,-0.7426 1.31751,-1.5331 1.86847,-2.37151c0.88632,-1.41333 0.7426,-2.39547 -0.45514,-3.56925c-0.21559,-0.23955 -0.45514,-0.45514 -0.67073,-0.71864c-0.62282,-0.7905 -0.67073,-1.41333 -0.04791,-2.22779c0.40723,-0.527 0.93423,-0.95819 1.41333,-1.43728c0.23955,-0.21559 0.527,-0.31141 0.91028,-0.2635c0.28746,0.04791 0.64678,-0.04791 0.95819,-0.14373c0.14373,-0.02395 0.33537,-0.23955 0.33537,-0.35932c0,-0.16768 -0.11977,-0.43118 -0.28746,-0.50305c-0.38327,-0.16768 -0.81446,-0.2635 -1.24564,-0.38327z"
          data-paper-data="{&quot;glyphName&quot;:&quot;s&quot;,&quot;glyphIndex&quot;:4,&quot;lastGlyphOfWord&quot;:true,&quot;word&quot;:1}">
        </path>
        <path
          d="M225.74636,248.49428c0.43118,0.93423 0.40723,1.86847 0.31141,2.8027c-0.11977,1.14982 -0.50305,2.20383 -1.03005,3.20993c-0.19164,0.33537 -0.11977,0.527 0.23955,0.67073c0.47909,0.19164 0.98214,0.19164 1.48519,0.07186c0.28746,-0.07186 0.50305,-0.23955 0.64678,-0.527c0.57491,-1.17378 0.98214,-2.39547 1.10192,-3.68902c0.09582,-0.95819 0,-1.86847 -0.35932,-2.75479c-0.2635,-0.62282 -0.71864,-1.03005 -1.38937,-1.14982c-0.93423,-0.16768 -1.84451,-0.09582 -2.61106,0.47909c-0.71864,0.527 -1.41333,1.10192 -1.96428,1.77265c-2.82665,3.42552 -4.79094,7.30618 -5.8689,11.61802c-0.35932,1.50915 -0.55096,3.04225 -0.23955,4.57535c0.23955,1.22169 0.86237,1.86847 1.89242,1.98824c0.95819,0.07186 1.89242,-0.02395 2.70688,-0.527c1.10192,-0.67073 2.17988,-1.38937 3.28179,-2.08406c0.14373,-0.11977 0.2635,-0.2635 0.35932,-0.40723c0.14373,-0.19164 0.07186,-0.35932 -0.09582,-0.50305c-0.45514,-0.33537 -1.67683,-0.31141 -2.10801,0.07186c-0.88632,0.86237 -1.98824,1.46124 -3.04225,2.08406c-0.09582,0.04791 -0.19164,0.07186 -0.35932,0.14373c-0.11977,-0.50305 -0.23955,-0.93423 -0.31141,-1.38937c-0.19164,-1.2696 0,-2.5392 0.31141,-3.78484c0.95819,-3.92857 2.70688,-7.47386 5.15026,-10.68379c0.55096,-0.71864 1.12587,-1.41333 1.89242,-1.98824z"
          data-paper-data="{&quot;glyphName&quot;:&quot;C&quot;,&quot;glyphIndex&quot;:5,&quot;firstGlyphOfWord&quot;:true,&quot;word&quot;:2}">
        </path>
        <path
          d="M231.59131,255.2016c0.16768,-0.7426 0,-1.0061 -0.76655,-1.12587c-0.88632,-0.11977 -1.65287,0.07186 -2.17988,0.88632c-0.86237,1.31751 -1.60496,2.70688 -2.08406,4.19207c-0.33537,1.05401 -0.45514,2.10801 -0.35932,3.18597c0.09582,1.22169 0.64678,1.74869 1.89242,1.7966c0.86237,0.04791 1.65287,-0.21559 2.37151,-0.69469c1.77265,-1.24564 3.01829,-2.89852 3.83275,-4.91071c0.11977,-0.28746 0.19164,-0.62282 0.21559,-0.93423c0.07186,-0.98214 -0.31141,-1.62892 -1.24564,-1.96428c-0.50305,-0.19164 -1.07796,-0.28746 -1.67683,-0.43118zM230.17798,256.61492c0.45514,-0.04791 0.83841,-0.04791 1.22169,-0.09582c0.38327,-0.04791 0.55096,0.14373 0.64678,0.47909c0.11977,0.47909 0.02395,0.93423 -0.14373,1.36542c-0.59887,1.5331 -1.55705,2.82665 -2.77874,3.92857c-0.07186,0.07186 -0.19164,0.14373 -0.28746,0.19164c-0.02395,0.02395 -0.07186,0 -0.19164,0c-0.2635,-2.15592 0.527,-4.04834 1.5331,-5.8689z"
          data-paper-data="{&quot;glyphName&quot;:&quot;o&quot;,&quot;glyphIndex&quot;:6,&quot;word&quot;:2}"></path>
        <path
          d="M240.21499,255.2016c0.16768,-0.7426 0,-1.0061 -0.76655,-1.12587c-0.88632,-0.11977 -1.65287,0.07186 -2.17988,0.88632c-0.86237,1.31751 -1.60496,2.70688 -2.08406,4.19207c-0.33537,1.05401 -0.45514,2.10801 -0.35932,3.18597c0.09582,1.22169 0.64678,1.74869 1.89242,1.7966c0.86237,0.04791 1.65287,-0.21559 2.37151,-0.69469c1.77265,-1.24564 3.01829,-2.89852 3.83275,-4.91071c0.11977,-0.28746 0.19164,-0.62282 0.21559,-0.93423c0.07186,-0.98214 -0.31141,-1.62892 -1.24564,-1.96428c-0.50305,-0.19164 -1.07796,-0.28746 -1.67683,-0.43118zM238.80167,256.61492c0.45514,-0.04791 0.83841,-0.04791 1.22169,-0.09582c0.38327,-0.04791 0.55096,0.14373 0.64678,0.47909c0.11977,0.47909 0.02395,0.93423 -0.14373,1.36542c-0.59887,1.5331 -1.55705,2.82665 -2.77874,3.92857c-0.07186,0.07186 -0.19164,0.14373 -0.28746,0.19164c-0.02395,0.02395 -0.07186,0 -0.19164,0c-0.2635,-2.15592 0.527,-4.04834 1.5331,-5.8689z"
          data-paper-data="{&quot;glyphName&quot;:&quot;o&quot;,&quot;glyphIndex&quot;:7,&quot;word&quot;:2}"></path>
        <path
          d="M249.00636,259.56135c0.16768,-0.11977 0.2635,-0.21559 0.38327,-0.28746c1.12587,-0.71864 2.20383,-1.50915 3.13806,-2.46733c0.50305,-0.50305 0.88632,-1.07796 1.12587,-1.74869c0.14373,-0.38327 0.04791,-0.57491 -0.33537,-0.71864c-0.527,-0.21559 -1.10192,-0.21559 -1.62892,0.02395c-0.19164,0.07186 -0.35932,0.31141 -0.43118,0.50305c-0.2635,0.67073 -0.64678,1.24564 -1.19773,1.70078c-0.7426,0.62282 -1.5331,1.22169 -2.29965,1.82056c-0.14373,0.09582 -0.28746,0.16768 -0.527,0.31141c0.07186,-0.23955 0.09582,-0.35932 0.14373,-0.45514c1.50915,-3.37761 3.11411,-6.70731 5.19817,-9.77351c0.38327,-0.57491 0.71864,-1.19773 1.31751,-1.60496c0.11977,-0.07186 0.16768,-0.21559 0.23955,-0.33537c0.23955,-0.40723 0.16768,-0.64678 -0.2635,-0.81446c-0.76655,-0.31141 -1.77265,-0.07186 -2.2757,0.57491c-0.527,0.69469 -1.03005,1.38937 -1.50915,2.10801c-2.41942,3.66507 -4.31184,7.59364 -5.91681,11.66593c-0.76655,1.96428 -1.31751,3.97648 -1.67683,6.06054c-0.21559,1.17378 0.31141,1.70078 1.5331,1.48519c0.16768,-0.02395 0.35932,-0.07186 0.527,-0.14373c0.50305,-0.19164 0.69469,-0.69469 0.81446,-1.14982c0.07186,-0.19164 -0.16768,-0.47909 -0.31141,-0.81446c0.35932,-1.74869 0.83841,-3.5932 1.67683,-5.36585c0.11977,0.23955 0.19164,0.45514 0.23955,0.69469c0.07186,0.7426 0.16768,1.48519 0.21559,2.22779c0.07186,1.10192 0.59887,1.98824 1.41333,2.73083c0.81446,0.76655 1.7966,0.7905 2.8027,0.50305c0.28746,-0.07186 0.55096,-0.28746 0.7426,-0.47909c0.2635,-0.2635 0.21559,-0.55096 -0.14373,-0.67073c-0.33537,-0.09582 -0.69469,-0.16768 -1.03005,-0.14373c-0.38327,0.04791 -0.59887,-0.11977 -0.7905,-0.40723c-0.38327,-0.55096 -0.527,-1.17378 -0.59887,-1.84451c-0.09582,-1.05401 -0.02395,-2.15592 -0.57491,-3.18597z"
          data-paper-data="{&quot;glyphName&quot;:&quot;k&quot;,&quot;glyphIndex&quot;:8,&quot;word&quot;:2}"></path>
        <path
          d="M266.92447,247.46423c-0.7426,-0.50305 -2.01219,-0.21559 -2.44338,0.55096c-0.23955,0.43118 -0.47909,0.88632 -0.64678,1.34146c-0.86237,2.2757 -1.72474,4.57535 -2.5392,6.875c-0.45514,1.31751 -0.86237,2.65897 -1.24564,4.00043c-0.21559,0.69469 0.02395,0.95819 0.71864,1.03005c0.11977,0.02395 0.23955,0 0.35932,0c0,0 0,0 0,0.02395c0.09582,0 0.16768,0 0.2635,-0.02395c0.69469,-0.02395 0.86237,-0.19164 1.05401,-0.86237c0.21559,-0.7426 0.43118,-1.48519 0.67073,-2.22779c0.95819,-2.99434 1.91637,-5.98867 3.20993,-8.86323c0.16768,-0.38327 0.31141,-0.76655 0.67073,-1.05401c0.31141,-0.21559 0.2635,-0.57491 -0.07186,-0.7905zM260.9358,263.53783c-0.14373,-0.02395 -0.28746,0 -0.33537,-0.02395c-1.05401,0 -1.34146,0.21559 -1.5331,1.14982c-0.16768,0.7426 -0.31141,1.46124 -0.43118,2.20383c-0.16768,1.05401 0.16768,1.41333 1.22169,1.38937c0.23955,-0.02395 0.47909,-0.07186 0.69469,-0.14373c0.31141,-0.09582 0.43118,-0.28746 0.47909,-0.64678c0.11977,-0.98214 0.28746,-1.94033 0.527,-2.87456c0.16768,-0.69469 0.07186,-0.93423 -0.62282,-1.05401z"
          data-paper-data="{&quot;glyphName&quot;:&quot;!&quot;,&quot;glyphIndex&quot;:9,&quot;lastGlyphOfWord&quot;:true,&quot;word&quot;:2}">
        </path>
      </g>
      <g data-paper-data="{&quot;isPrimaryText&quot;:true}" fill-rule="nonzero">
        <path
          d="M168.49367,233.00058v-28.69815h4.84207v11.9674h13.69953v-11.9674h4.88144c0,0.31493 0,1.19412 0,2.63755c0,1.44344 0,3.18212 0,5.21606c0,2.03393 -0.00656,4.19909 -0.01968,6.49547c-0.01312,2.29638 -0.01968,4.46153 -0.01968,6.49547c0,2.03393 0,3.77262 0,5.21606c0,1.44344 0,2.32262 0,2.63755h-4.84207v-12.12487h-13.69953v12.12487z"
          data-paper-data="{&quot;glyphName&quot;:&quot;H&quot;,&quot;glyphIndex&quot;:0,&quot;firstGlyphOfWord&quot;:true,&quot;word&quot;:1}">
        </path>
        <path
          d="M216.16645,233.00058c-0.07873,-0.18371 -0.21652,-0.51176 -0.41335,-0.98416c-0.19683,-0.4724 -0.43959,-1.04977 -0.72828,-1.73212c-0.28869,-0.68235 -0.60362,-1.43688 -0.9448,-2.26357c-0.34118,-0.8267 -0.69547,-1.6862 -1.06289,-2.5785h-9.88098l-3.14932,7.55836h-4.76334c0.10498,-0.2362 0.3543,-0.82013 0.74796,-1.75181c0.39366,-0.93167 0.88575,-2.08642 1.47624,-3.46425c0.5905,-1.37783 1.2466,-2.91312 1.96832,-4.60588c0.72172,-1.69276 1.46312,-3.41832 2.2242,-5.17669c0.76108,-1.75837 1.50249,-3.48393 2.2242,-5.17669c0.72172,-1.69276 1.37783,-3.22805 1.96832,-4.60588c0.5905,-1.37783 1.08258,-2.53258 1.47624,-3.46425c0.39366,-0.93167 0.64299,-1.51561 0.74796,-1.75181c0.10498,0.2362 0.36086,0.82013 0.76765,1.75181c0.40679,0.93167 0.90543,2.08642 1.49593,3.46425c0.5905,1.37783 1.2466,2.91312 1.96832,4.60588c0.72172,1.69276 1.46312,3.41832 2.2242,5.17669c0.76108,1.75837 1.50249,3.48393 2.2242,5.17669c0.72172,1.69276 1.37783,3.22805 1.96832,4.60588c0.5905,1.37783 1.08258,2.53258 1.47624,3.46425c0.39366,0.93167 0.64299,1.51561 0.74796,1.75181zM204.78955,221.38747h6.53483l-2.83439,-6.84976c-0.02624,-0.02624 -0.09186,-0.20339 -0.19683,-0.53145c-0.10498,-0.32805 -0.18371,-0.6233 -0.2362,-0.88575c-0.05249,0.26244 -0.13122,0.55769 -0.2362,0.88575c-0.10498,0.32805 -0.15747,0.5052 -0.15747,0.53145z"
          data-paper-data="{&quot;glyphName&quot;:&quot;A&quot;,&quot;glyphIndex&quot;:1,&quot;word&quot;:1}"></path>
        <path
          d="M244.78587,219.06485v12.2036c-1.10226,0.65611 -2.43416,1.16131 -3.9957,1.51561c-1.56154,0.3543 -3.15588,0.53145 -4.78302,0.53145c-2.25701,0 -4.29751,-0.3543 -6.12148,-1.06289c-1.82398,-0.7086 -3.37895,-1.67964 -4.66493,-2.91312c-1.28597,-1.23348 -2.27013,-2.70316 -2.95248,-4.40904c-0.68235,-1.70588 -1.02353,-3.56923 -1.02353,-5.59004c0,-2.28325 0.40679,-4.36312 1.22036,-6.23958c0.81357,-1.87647 1.90927,-3.49049 3.2871,-4.84207c1.37783,-1.35158 2.97873,-2.40135 4.80271,-3.14932c1.82398,-0.74796 3.74637,-1.12194 5.76719,-1.12194c0.68235,0 1.39751,0.04593 2.14547,0.13778c0.74796,0.09186 1.48936,0.22964 2.2242,0.41335c0.73484,0.18371 1.44344,0.40023 2.12579,0.64955c0.68235,0.24932 1.29909,0.54457 1.85022,0.88575l-2.36199,3.93665c-0.36742,-0.2362 -0.80701,-0.43959 -1.31878,-0.61018c-0.51176,-0.17059 -1.04321,-0.32149 -1.59434,-0.45271c-0.55113,-0.13122 -1.0957,-0.22964 -1.63371,-0.29525c-0.53801,-0.06561 -1.04321,-0.09842 -1.51561,-0.09842c-1.33846,0 -2.61787,0.269 -3.83823,0.80701c-1.22036,0.53801 -2.30294,1.26629 -3.24773,2.18484c-0.9448,0.91855 -1.69932,2.01425 -2.26357,3.2871c-0.56425,1.27285 -0.84638,2.63099 -0.84638,4.07443c0,1.31222 0.24932,2.55882 0.74796,3.73981c0.49864,1.18099 1.19412,2.2242 2.08642,3.12963c0.89231,0.90543 1.9552,1.62715 3.18868,2.16516c1.23348,0.53801 2.58506,0.80701 4.05475,0.80701c0.52489,0 1.18099,-0.04593 1.96832,-0.13778c0.78733,-0.09186 1.53529,-0.25588 2.24389,-0.49208v-4.88144h-5.35384v-4.17284z"
          data-paper-data="{&quot;glyphName&quot;:&quot;G&quot;,&quot;glyphIndex&quot;:2,&quot;word&quot;:1}"></path>
        <path
          d="M267.10665,205.91646l-1.73212,3.93665c-1.10226,-0.39366 -2.1914,-0.7086 -3.26742,-0.9448c-1.07602,-0.2362 -2.0733,-0.3543 -2.99185,-0.3543c-1.6009,0 -2.86719,0.31493 -3.79886,0.9448c-0.93167,0.62986 -1.39751,1.43031 -1.39751,2.40135c0,0.83982 0.34774,1.52217 1.04321,2.04706c0.69547,0.52489 1.5681,0.99728 2.61787,1.41719c1.04977,0.41991 2.18484,0.84638 3.4052,1.27941c1.22036,0.43303 2.35543,0.99072 3.4052,1.67307c1.04977,0.68235 1.9224,1.54841 2.61787,2.59819c0.69547,1.04977 1.04321,2.38823 1.04321,4.01538c0,1.25973 -0.22964,2.40135 -0.68891,3.42488c-0.45928,1.02353 -1.14819,1.90271 -2.06674,2.63755c-0.91855,0.73484 -2.07986,1.30565 -3.48393,1.71244c-1.40407,0.40679 -3.0509,0.61018 -4.94049,0.61018c-1.15475,0 -2.20452,-0.07873 -3.14932,-0.2362c-0.9448,-0.15747 -1.79117,-0.3543 -2.53914,-0.5905c-0.74796,-0.2362 -1.41063,-0.49208 -1.98801,-0.76765c-0.57737,-0.27557 -1.07602,-0.54457 -1.49593,-0.80701l2.08642,-4.21221c1.10226,0.60362 2.28325,1.06946 3.54298,1.39751c1.25973,0.32805 2.37511,0.49208 3.34615,0.49208c0.4724,0 1.08258,-0.05249 1.83054,-0.15747c0.74796,-0.10498 1.47624,-0.30181 2.18484,-0.5905c0.7086,-0.28869 1.31878,-0.68235 1.83054,-1.18099c0.51176,-0.49864 0.76765,-1.14163 0.76765,-1.92896c0,-0.91855 -0.34774,-1.67307 -1.04321,-2.26357c-0.69547,-0.5905 -1.5681,-1.11538 -2.61787,-1.57466c-1.04977,-0.45928 -2.18484,-0.91199 -3.4052,-1.35814c-1.22036,-0.44615 -2.35543,-0.9776 -3.4052,-1.59434c-1.04977,-0.61674 -1.9224,-1.37783 -2.61787,-2.28325c-0.69547,-0.90543 -1.04321,-2.05362 -1.04321,-3.44457c0,-0.99728 0.19683,-1.97488 0.5905,-2.9328c0.39366,-0.95792 0.99072,-1.81742 1.79117,-2.5785c0.80045,-0.76108 1.79773,-1.37783 2.99185,-1.85022c1.19412,-0.4724 2.60475,-0.7086 4.23189,-0.7086c1.02353,0 2.01425,0.08529 2.97217,0.25588c0.95792,0.17059 1.81742,0.36086 2.5785,0.57081c0.76108,0.20995 1.39095,0.41335 1.88959,0.61018c0.49864,0.19683 0.80045,0.30837 0.90543,0.33461z"
          data-paper-data="{&quot;glyphName&quot;:&quot;S&quot;,&quot;glyphIndex&quot;:3,&quot;lastGlyphOfWord&quot;:true,&quot;word&quot;:1}">
        </path>
        <path
          d="M303.24506,230.87479c-0.31493,0.20995 -0.75452,0.45928 -1.31878,0.74796c-0.56425,0.28869 -1.23348,0.55769 -2.00769,0.80701c-0.77421,0.24932 -1.64683,0.45928 -2.61787,0.62986c-0.97104,0.17059 -2.00769,0.25588 -3.10995,0.25588c-2.25701,0 -4.27782,-0.3871 -6.06243,-1.16131c-1.78461,-0.77421 -3.29366,-1.81742 -4.52714,-3.12963c-1.23348,-1.31222 -2.17828,-2.84751 -2.83439,-4.60588c-0.65611,-1.75837 -0.98416,-3.60859 -0.98416,-5.55067c0,-2.15203 0.39366,-4.14004 1.18099,-5.96402c0.78733,-1.82398 1.85678,-3.39864 3.20837,-4.72398c1.35158,-1.32534 2.92624,-2.35543 4.72398,-3.09027c1.79773,-0.73484 3.72013,-1.10226 5.76719,-1.10226c0.78733,0 1.58122,0.05905 2.38167,0.17715c0.80045,0.1181 1.55498,0.269 2.26357,0.45271c0.7086,0.18371 1.3319,0.39366 1.86991,0.62986c0.53801,0.2362 0.92511,0.48552 1.16131,0.74796c-0.2362,0.36742 -0.41991,0.66923 -0.55113,0.90543c-0.13122,0.2362 -0.269,0.47896 -0.41335,0.72828c-0.14434,0.24932 -0.30181,0.53145 -0.4724,0.84638c-0.17059,0.31493 -0.41335,0.74796 -0.72828,1.29909c-0.31493,-0.20995 -0.69547,-0.39366 -1.14163,-0.55113c-0.44615,-0.15747 -0.91199,-0.28213 -1.39751,-0.37398c-0.48552,-0.09186 -0.9776,-0.16403 -1.47624,-0.21652c-0.49864,-0.05249 -0.9448,-0.07873 -1.33846,-0.07873c-1.46968,0 -2.82782,0.27557 -4.07443,0.8267c-1.2466,0.55113 -2.32262,1.27941 -3.22805,2.18484c-0.90543,0.90543 -1.61402,1.96176 -2.12579,3.169c-0.51176,1.20724 -0.76765,2.45384 -0.76765,3.73981c0,1.25973 0.24276,2.48665 0.72828,3.68076c0.48552,1.19412 1.16787,2.25045 2.04706,3.169c0.87918,0.91855 1.9224,1.65995 3.12963,2.2242c1.20724,0.56425 2.5457,0.84638 4.01538,0.84638c0.83982,0 1.65339,-0.08529 2.44072,-0.25588c0.78733,-0.17059 1.4828,-0.36086 2.08642,-0.57081c0.60362,-0.20995 1.0957,-0.41991 1.47624,-0.62986c0.38054,-0.20995 0.58394,-0.3543 0.61018,-0.43303z"
          data-paper-data="{&quot;glyphName&quot;:&quot;C&quot;,&quot;glyphIndex&quot;:4,&quot;firstGlyphOfWord&quot;:true,&quot;word&quot;:2}">
        </path>
        <path
          d="M324.46358,233.00058c-0.07873,-0.18371 -0.21652,-0.51176 -0.41335,-0.98416c-0.19683,-0.4724 -0.43959,-1.04977 -0.72828,-1.73212c-0.28869,-0.68235 -0.60362,-1.43688 -0.9448,-2.26357c-0.34118,-0.8267 -0.69547,-1.6862 -1.06289,-2.5785h-9.88098l-3.14932,7.55836h-4.76334c0.10498,-0.2362 0.3543,-0.82013 0.74796,-1.75181c0.39366,-0.93167 0.88575,-2.08642 1.47624,-3.46425c0.5905,-1.37783 1.2466,-2.91312 1.96832,-4.60588c0.72172,-1.69276 1.46312,-3.41832 2.2242,-5.17669c0.76108,-1.75837 1.50249,-3.48393 2.2242,-5.17669c0.72172,-1.69276 1.37783,-3.22805 1.96832,-4.60588c0.5905,-1.37783 1.08258,-2.53258 1.47624,-3.46425c0.39366,-0.93167 0.64299,-1.51561 0.74796,-1.75181c0.10498,0.2362 0.36086,0.82013 0.76765,1.75181c0.40679,0.93167 0.90543,2.08642 1.49593,3.46425c0.5905,1.37783 1.2466,2.91312 1.96832,4.60588c0.72172,1.69276 1.46312,3.41832 2.2242,5.17669c0.76108,1.75837 1.50249,3.48393 2.2242,5.17669c0.72172,1.69276 1.37783,3.22805 1.96832,4.60588c0.5905,1.37783 1.08258,2.53258 1.47624,3.46425c0.39366,0.93167 0.64299,1.51561 0.74796,1.75181zM313.08668,221.38747h6.53483l-2.83439,-6.84976c-0.02624,-0.02624 -0.09186,-0.20339 -0.19683,-0.53145c-0.10498,-0.32805 -0.18371,-0.6233 -0.2362,-0.88575c-0.05249,0.26244 -0.13122,0.55769 -0.2362,0.88575c-0.10498,0.32805 -0.15747,0.5052 -0.15747,0.53145z"
          data-paper-data="{&quot;glyphName&quot;:&quot;A&quot;,&quot;glyphIndex&quot;:5,&quot;word&quot;:2}"></path>
        <path
          d="M357.88571,204.30243v30.03661c-0.18371,-0.2362 -0.5905,-0.66923 -1.22036,-1.29909c-0.62986,-0.62986 -1.40407,-1.38439 -2.32262,-2.26357c-0.91855,-0.87918 -1.93552,-1.85022 -3.0509,-2.91312c-1.11538,-1.06289 -2.25045,-2.13891 -3.4052,-3.22805c-1.15475,-1.08914 -2.28325,-2.15859 -3.38552,-3.20837c-1.10226,-1.04977 -2.10611,-2.01425 -3.01153,-2.89343c-0.90543,-0.87918 -1.66651,-1.62715 -2.28325,-2.24389c-0.61674,-0.61674 -1.01697,-1.04321 -1.20068,-1.27941c-0.02624,-0.05249 -0.13122,-0.19027 -0.31493,-0.41335c-0.18371,-0.22308 -0.34118,-0.42647 -0.4724,-0.61018l0.1181,1.25973v17.75427h-4.80271v-29.99724c0.18371,0.2362 0.5905,0.66267 1.22036,1.27941c0.62986,0.61674 1.40407,1.35814 2.32262,2.2242c0.91855,0.86606 1.93552,1.81086 3.0509,2.83439c1.11538,1.02353 2.25045,2.06674 3.4052,3.12963c1.15475,1.06289 2.28325,2.11267 3.38552,3.14932c1.10226,1.03665 2.11267,1.98145 3.03122,2.83439c0.91855,0.85294 1.6862,1.58122 2.30294,2.18484c0.61674,0.60362 1.01697,1.02353 1.20068,1.25973l0.74796,1.10226l-0.1181,-1.33846v-17.36061z"
          data-paper-data="{&quot;glyphName&quot;:&quot;N&quot;,&quot;glyphIndex&quot;:6,&quot;lastGlyphOfWord&quot;:true,&quot;word&quot;:2}">
        </path>
        <path
          d="M395.08701,230.87479c-0.31493,0.20995 -0.75452,0.45928 -1.31878,0.74796c-0.56425,0.28869 -1.23348,0.55769 -2.00769,0.80701c-0.77421,0.24932 -1.64683,0.45928 -2.61787,0.62986c-0.97104,0.17059 -2.00769,0.25588 -3.10995,0.25588c-2.25701,0 -4.27782,-0.3871 -6.06243,-1.16131c-1.78461,-0.77421 -3.29366,-1.81742 -4.52714,-3.12963c-1.23348,-1.31222 -2.17828,-2.84751 -2.83439,-4.60588c-0.65611,-1.75837 -0.98416,-3.60859 -0.98416,-5.55067c0,-2.15203 0.39366,-4.14004 1.18099,-5.96402c0.78733,-1.82398 1.85678,-3.39864 3.20837,-4.72398c1.35158,-1.32534 2.92624,-2.35543 4.72398,-3.09027c1.79773,-0.73484 3.72013,-1.10226 5.76719,-1.10226c0.78733,0 1.58122,0.05905 2.38167,0.17715c0.80045,0.1181 1.55498,0.269 2.26357,0.45271c0.7086,0.18371 1.3319,0.39366 1.86991,0.62986c0.53801,0.2362 0.92511,0.48552 1.16131,0.74796c-0.2362,0.36742 -0.41991,0.66923 -0.55113,0.90543c-0.13122,0.2362 -0.269,0.47896 -0.41335,0.72828c-0.14434,0.24932 -0.30181,0.53145 -0.4724,0.84638c-0.17059,0.31493 -0.41335,0.74796 -0.72828,1.29909c-0.31493,-0.20995 -0.69547,-0.39366 -1.14163,-0.55113c-0.44615,-0.15747 -0.91199,-0.28213 -1.39751,-0.37398c-0.48552,-0.09186 -0.9776,-0.16403 -1.47624,-0.21652c-0.49864,-0.05249 -0.9448,-0.07873 -1.33846,-0.07873c-1.46968,0 -2.82782,0.27557 -4.07443,0.8267c-1.2466,0.55113 -2.32262,1.27941 -3.22805,2.18484c-0.90543,0.90543 -1.61402,1.96176 -2.12579,3.169c-0.51176,1.20724 -0.76765,2.45384 -0.76765,3.73981c0,1.25973 0.24276,2.48665 0.72828,3.68076c0.48552,1.19412 1.16787,2.25045 2.04706,3.169c0.87918,0.91855 1.9224,1.65995 3.12963,2.2242c1.20724,0.56425 2.5457,0.84638 4.01538,0.84638c0.83982,0 1.65339,-0.08529 2.44072,-0.25588c0.78733,-0.17059 1.4828,-0.36086 2.08642,-0.57081c0.60362,-0.20995 1.0957,-0.41991 1.47624,-0.62986c0.38054,-0.20995 0.58394,-0.3543 0.61018,-0.43303z"
          data-paper-data="{&quot;glyphName&quot;:&quot;C&quot;,&quot;glyphIndex&quot;:7,&quot;firstGlyphOfWord&quot;:true,&quot;word&quot;:3}">
        </path>
        <path
          d="M395.99244,218.71055c0,-1.99457 0.3871,-3.88416 1.16131,-5.66877c0.77421,-1.78461 1.82398,-3.34615 3.14932,-4.68461c1.32534,-1.33846 2.87375,-2.40135 4.64524,-3.18868c1.77149,-0.78733 3.66764,-1.18099 5.68845,-1.18099c1.99457,0 3.88416,0.39366 5.66877,1.18099c1.78461,0.78733 3.34615,1.85022 4.68461,3.18868c1.33846,1.33846 2.39479,2.9 3.169,4.68461c0.77421,1.78461 1.16131,3.6742 1.16131,5.66877c0,2.02081 -0.3871,3.91696 -1.16131,5.68845c-0.77421,1.77149 -1.83054,3.3199 -3.169,4.64524c-1.33846,1.32534 -2.9,2.36855 -4.68461,3.12963c-1.78461,0.76108 -3.6742,1.14163 -5.66877,1.14163c-2.02081,0 -3.91696,-0.38054 -5.68845,-1.14163c-1.77149,-0.76108 -3.3199,-1.8043 -4.64524,-3.12963c-1.32534,-1.32534 -2.37511,-2.87375 -3.14932,-4.64524c-0.77421,-1.77149 -1.16131,-3.66764 -1.16131,-5.68845zM400.83451,218.71055c0,1.39095 0.25588,2.6966 0.76765,3.91696c0.51176,1.22036 1.22036,2.28325 2.12579,3.18868c0.90543,0.90543 1.9552,1.62059 3.14932,2.14547c1.19412,0.52489 2.48665,0.78733 3.8776,0.78733c1.33846,0 2.60475,-0.26244 3.79886,-0.78733c1.19412,-0.52489 2.23077,-1.24004 3.10995,-2.14547c0.87918,-0.90543 1.57466,-1.96832 2.08642,-3.18868c0.51176,-1.22036 0.76765,-2.52601 0.76765,-3.91696c0,-1.39095 -0.26244,-2.6966 -0.78733,-3.91696c-0.52489,-1.22036 -1.23348,-2.28982 -2.12579,-3.20837c-0.89231,-0.91855 -1.93552,-1.64027 -3.12963,-2.16516c-1.19412,-0.52489 -2.47353,-0.78733 -3.83823,-0.78733c-1.3647,0 -2.64411,0.26244 -3.83823,0.78733c-1.19412,0.52489 -2.23077,1.2466 -3.10995,2.16516c-0.87918,0.91855 -1.57466,1.98801 -2.08642,3.20837c-0.51176,1.22036 -0.76765,2.52601 -0.76765,3.91696z"
          data-paper-data="{&quot;glyphName&quot;:&quot;O&quot;,&quot;glyphIndex&quot;:8,&quot;word&quot;:3}"></path>
        <path
          d="M428.15483,218.71055c0,-1.99457 0.3871,-3.88416 1.16131,-5.66877c0.77421,-1.78461 1.82398,-3.34615 3.14932,-4.68461c1.32534,-1.33846 2.87375,-2.40135 4.64524,-3.18868c1.77149,-0.78733 3.66764,-1.18099 5.68845,-1.18099c1.99457,0 3.88416,0.39366 5.66877,1.18099c1.78461,0.78733 3.34615,1.85022 4.68461,3.18868c1.33846,1.33846 2.39479,2.9 3.169,4.68461c0.77421,1.78461 1.16131,3.6742 1.16131,5.66877c0,2.02081 -0.3871,3.91696 -1.16131,5.68845c-0.77421,1.77149 -1.83054,3.3199 -3.169,4.64524c-1.33846,1.32534 -2.9,2.36855 -4.68461,3.12963c-1.78461,0.76108 -3.6742,1.14163 -5.66877,1.14163c-2.02081,0 -3.91696,-0.38054 -5.68845,-1.14163c-1.77149,-0.76108 -3.3199,-1.8043 -4.64524,-3.12963c-1.32534,-1.32534 -2.37511,-2.87375 -3.14932,-4.64524c-0.77421,-1.77149 -1.16131,-3.66764 -1.16131,-5.68845zM432.99691,218.71055c0,1.39095 0.25588,2.6966 0.76765,3.91696c0.51176,1.22036 1.22036,2.28325 2.12579,3.18868c0.90543,0.90543 1.9552,1.62059 3.14932,2.14547c1.19412,0.52489 2.48665,0.78733 3.8776,0.78733c1.33846,0 2.60475,-0.26244 3.79886,-0.78733c1.19412,-0.52489 2.23077,-1.24004 3.10995,-2.14547c0.87918,-0.90543 1.57466,-1.96832 2.08642,-3.18868c0.51176,-1.22036 0.76765,-2.52601 0.76765,-3.91696c0,-1.39095 -0.26244,-2.6966 -0.78733,-3.91696c-0.52489,-1.22036 -1.23348,-2.28982 -2.12579,-3.20837c-0.89231,-0.91855 -1.93552,-1.64027 -3.12963,-2.16516c-1.19412,-0.52489 -2.47353,-0.78733 -3.83823,-0.78733c-1.3647,0 -2.64411,0.26244 -3.83823,0.78733c-1.19412,0.52489 -2.23077,1.2466 -3.10995,2.16516c-0.87918,0.91855 -1.57466,1.98801 -2.08642,3.20837c-0.51176,1.22036 -0.76765,2.52601 -0.76765,3.91696z"
          data-paper-data="{&quot;glyphName&quot;:&quot;O&quot;,&quot;glyphIndex&quot;:9,&quot;word&quot;:3}"></path>
        <path
          d="M479.0163,233.00058c-0.91855,-1.12851 -1.77149,-2.21764 -2.55882,-3.26742c-0.78733,-1.04977 -1.57466,-2.09298 -2.36199,-3.12963c-0.78733,-1.03665 -1.58122,-2.08642 -2.38167,-3.14932c-0.80045,-1.06289 -1.64683,-2.17172 -2.53914,-3.32647c-0.28869,0.31493 -0.56425,0.59706 -0.8267,0.84638c-0.26244,0.24932 -0.53801,0.5052 -0.8267,0.76765v11.25881h-5.31447v-28.69815h5.31447v10.31401c0,0.20995 -0.01312,0.43303 -0.03937,0.66923c-0.02624,0.2362 -0.05249,0.4724 -0.07873,0.7086c0.13122,-0.18371 0.269,-0.34774 0.41335,-0.49208c0.14434,-0.14434 0.28213,-0.32149 0.41335,-0.53145c1.78461,-1.70588 3.49705,-3.47737 5.13732,-5.31447c1.64027,-1.8371 3.35271,-3.62171 5.13732,-5.35384h6.1018c-1.96832,2.0733 -3.92352,4.17284 -5.8656,6.29863c-1.94208,2.12579 -3.88416,4.21221 -5.82624,6.25927c1.10226,1.41719 2.14547,2.79502 3.12963,4.13348c0.98416,1.33846 1.96176,2.65724 2.9328,3.95633c0.97104,1.29909 1.94864,2.61131 2.9328,3.93665c0.98416,1.32534 2.01425,2.6966 3.09027,4.11379z"
          data-paper-data="{&quot;glyphName&quot;:&quot;K&quot;,&quot;glyphIndex&quot;:10,&quot;lastGlyphOfWord&quot;:true,&quot;word&quot;:3}">
        </path>
      </g>
      <g data-paper-data="{&quot;fillRule&quot;:&quot;evenodd&quot;,&quot;fillRuleOriginal&quot;:&quot;evenodd&quot;,&quot;isIcon&quot;:true,&quot;iconStyle&quot;:&quot;standalone&quot;,&quot;selectedEffects&quot;:{&quot;container&quot;:&quot;&quot;,&quot;transformation&quot;:&quot;translate43&quot;,&quot;pattern&quot;:&quot;&quot;},&quot;bounds&quot;:{&quot;x&quot;:64.99999999999997,&quot;y&quot;:187.8199342587813,&quot;width&quot;:75.33026904470518,&quot;height&quot;:94.3601314824374},&quot;iconType&quot;:&quot;icon&quot;,&quot;isDetailed&quot;:false,&quot;source&quot;:&quot;ai&quot;,&quot;rawIconId&quot;:&quot;JLPPO_zay4ez4u9_ukGgZeKt55TJgcVm53CRpTY9Lf&quot;,&quot;suitableAsStandaloneIcon&quot;:true}"
        fill-rule="evenodd">
        <path
          d="M87.92803,197.20442c2.43272,-4.6327 6.82397,-8.09808 11.49664,-9.07333c2.66825,-0.55667 6.42497,-0.35063 8.95573,0.49182c4.94524,1.64549 9.31917,5.96976 10.79963,10.67631c0.44453,1.41339 0.65407,1.71748 1.06174,1.54216c1.8109,-0.77884 3.86139,-1.08975 6.56245,-0.9948c2.64503,0.09309 3.20161,0.22248 5.36194,1.24863c7.09894,3.37135 10.09782,11.45758 6.86857,18.52114c-1.55363,3.39844 -4.82066,6.28324 -8.09765,7.1498c-2.25211,0.59583 -2.58514,1.14264 -2.58514,4.24621c0,2.30261 -0.08404,2.70143 -0.70033,3.31753l-0.69996,0.70014l-24.15361,0.05603c-24.21704,0.05621 -25.04118,0.02451 -25.71763,-0.9882c-0.12536,-0.1878 -0.23798,-1.24898 -0.25009,-2.35827c-0.01242,-1.10928 -0.18898,-2.50091 -0.39253,-3.09232c-0.37235,-1.0809 -0.59453,-1.24309 -3.47343,-2.53666c-1.8143,-0.81496 -4.8648,-3.6008 -5.92633,-5.41133c-3.47933,-5.93566 -2.43333,-13.32247 2.59934,-18.35514c4.02826,-4.02824 10.218,-5.34327 15.83029,-3.36296l1.28842,0.45457zM77.15334,257.17203c0,-17.88198 0.01395,-18.30955 0.62058,-18.91625c0.58241,-0.58238 1.03422,-0.62053 7.34505,-0.62053c5.0267,0 6.84479,-0.06395 7.4985,0.77699c0.41559,0.53428 0.36085,1.43438 0.36085,2.94839c0,3.30924 0.38942,4.57407 1.50497,4.88719c0.45208,0.1268 4.36029,0.23074 8.68445,0.23074h7.86267l0.59288,-0.73258c0.49834,-0.61537 0.59344,-1.24401 0.59344,-3.93382c0,-2.49704 0.10726,-3.30905 0.48746,-3.68944c0.41319,-0.41301 1.51105,-0.48746 7.19441,-0.48746c6.45888,0 6.73348,0.02469 7.42515,0.67453l0.71802,0.6749v18.04177c0,16.90926 0.00184,19.56203 -1.21894,21.40445c-0.2289,0.34592 -0.5011,0.6631 -0.82436,1.04073c-1.71046,1.99834 -3.237,2.67655 -6.02449,2.67655c-2.73921,0 -4.35218,-0.69369 -5.85678,-2.51916c-1.70106,-2.06358 -1.90047,-3.19921 -1.90047,-10.81621c0,-6.59673 -0.02672,-6.90267 -0.65259,-7.46956c-0.60099,-0.54423 -1.29708,-0.59823 -8.79171,-0.68282c-7.68961,-0.08662 -8.18021,-0.05842 -8.88902,0.51493c-0.74825,0.60578 -0.75027,0.62164 -0.90508,8.32931c-0.13767,6.86212 -0.21987,7.82433 -0.73811,8.63856c-0.95263,1.49668 -2.13085,2.63784 -3.45078,3.34223c-1.6561,0.88407 -5.38335,0.93402 -6.98167,0.09381c-1.79413,-0.94342 -3.37354,-2.68816 -4.0357,-4.45815c-0.59235,-1.58274 -0.61872,-2.43272 -0.61872,-19.94905z"
          data-paper-data="{&quot;isPathIcon&quot;:true}"></path>
      </g>
    </g>
  </g>
</svg>